# xmcd
#
# Track frame offsets:
#	150
#	20250
#	36967
#	57290
#	73722
#	89077
#	108917
#	129707
#	146567
#	167742
#	186680
#	202897
#	225167
#
# Disc length: 3243 seconds
#
# Revision: 1
# Processed by: cddbd v1.5.2PL0 Copyright (c) Steve Scherf et al.
# Submitted via: audiograbber 1.83.01
#
DISCID=b70ca90d
DTITLE=Clay Aiken - On My Way Here (with Bonus/Wallmart)
DYEAR=2008
DGENRE=Easy Listening
TTITLE0=On My Way Here
TTITLE1=Ashes
TTITLE2=Everything I Don't Need
TTITLE3=Something About Us
TTITLE4=Falling
TTITLE5=Where I Draw The Line
TTITLE6=The Real Me
TTITLE7=Weight Of The World
TTITLE8=As Long As We're Here
TTITLE9=Sacrificial Love
TTITLE10=Grace Of God
TTITLE11=Lover All Alone
TTITLE12=Forget I Ever Knew You (Bonus Track)
EXTD=This is the one from Walmart with the Bonus Track "Forget I Ever Knew You"
EXTT0=
EXTT1=
EXTT2=
EXTT3=
EXTT4=
EXTT5=
EXTT6=
EXTT7=
EXTT8=
EXTT9=
EXTT10=
EXTT11=
EXTT12=
PLAYORDER=
